<?xml version="1.0" encoding="UTF-8"?>
<svg xmlns="http://www.w3.org/2000/svg" xmlns:xlink="http://www.w3.org/1999/xlink" width="120px" height="30px" viewBox="0 0 120 30" version="1.1">
<g id="surface1">
<path style=" stroke:none;fill-rule:nonzero;fill:rgb(0%,0%,0%);fill-opacity:1;" d="M 18.152344 1.152344 C 17.53125 1.316406 17.113281 1.59375 16.804688 2.035156 L 16.625 2.300781 L 16.597656 8.371094 C 16.566406 14.792969 16.578125 14.539062 16.304688 14.589844 C 16.136719 14.621094 15.976562 14.511719 15.875 14.300781 C 15.828125 14.195312 14.9375 11.910156 13.898438 9.222656 C 12.859375 6.535156 11.953125 4.230469 11.882812 4.097656 C 11.714844 3.765625 11.257812 3.429688 10.78125 3.273438 C 10.449219 3.167969 10.359375 3.15625 9.804688 3.15625 C 9.230469 3.15625 9.167969 3.164062 8.8125 3.285156 C 8.34375 3.449219 8 3.699219 7.757812 4.0625 C 7.597656 4.304688 7.574219 4.378906 7.578125 4.683594 C 7.585938 5.007812 7.710938 5.363281 9.59375 10.21875 C 10.699219 13.074219 11.605469 15.472656 11.605469 15.546875 C 11.605469 15.742188 11.476562 15.925781 11.238281 16.070312 C 10.960938 16.242188 10.683594 16.300781 10.21875 16.277344 C 9.585938 16.253906 9.445312 16.171875 8.238281 15.136719 C 7.113281 14.167969 6.933594 14.039062 6.296875 13.71875 C 4.832031 12.976562 3.296875 12.839844 1.878906 13.3125 C 1.179688 13.550781 0.917969 13.804688 1.109375 14.054688 C 1.144531 14.105469 1.375 14.300781 1.617188 14.496094 C 2.628906 15.296875 3.679688 16.335938 4.382812 17.214844 C 4.5625 17.445312 4.914062 17.960938 5.164062 18.351562 C 5.414062 18.742188 5.746094 19.210938 5.902344 19.390625 C 6.277344 19.832031 7.019531 20.519531 7.730469 21.085938 C 8.488281 21.699219 10.269531 22.945312 11.199219 23.515625 C 13.015625 24.632812 13.386719 24.976562 13.757812 25.867188 C 13.867188 26.121094 13.890625 26.308594 13.921875 27.261719 C 13.960938 28.480469 13.96875 28.496094 14.351562 28.601562 C 14.535156 28.65625 15.273438 28.664062 19.921875 28.664062 C 23.460938 28.664062 25.347656 28.648438 25.492188 28.621094 C 25.898438 28.542969 25.902344 28.527344 25.945312 27.054688 C 25.984375 25.40625 25.992188 25.394531 27.003906 24.082031 C 28.394531 22.300781 29.238281 20.0625 29.398438 17.773438 C 29.414062 17.480469 29.460938 17.179688 29.488281 17.101562 C 29.523438 17.023438 30.5625 15.308594 31.792969 13.292969 L 34.03125 9.628906 L 34.03125 9.203125 C 34.03125 8.824219 34.015625 8.75 33.875 8.539062 C 33.65625 8.210938 33.207031 7.894531 32.769531 7.753906 C 32.453125 7.648438 32.34375 7.632812 31.855469 7.632812 C 31.375 7.632812 31.257812 7.652344 30.96875 7.746094 C 30.546875 7.882812 30.238281 8.054688 30.039062 8.253906 C 29.960938 8.339844 28.996094 9.851562 27.910156 11.625 C 26.820312 13.390625 25.902344 14.859375 25.875 14.882812 C 25.839844 14.902344 25.820312 14.902344 25.820312 14.878906 C 25.820312 14.851562 26.65625 12.410156 27.683594 9.441406 C 29.476562 4.242188 29.542969 4.039062 29.523438 3.726562 C 29.476562 3.144531 29.035156 2.683594 28.269531 2.429688 C 27.910156 2.308594 27.835938 2.300781 27.273438 2.300781 C 26.734375 2.300781 26.628906 2.3125 26.328125 2.410156 C 25.9375 2.535156 25.480469 2.851562 25.3125 3.101562 C 25.246094 3.199219 24.324219 5.785156 23.269531 8.855469 C 21.011719 15.40625 21.25 14.746094 21.164062 14.726562 C 21.109375 14.714844 21.085938 13.265625 21.0625 8.503906 L 21.035156 2.300781 L 20.847656 2.027344 C 20.617188 1.675781 20.285156 1.429688 19.832031 1.257812 C 19.503906 1.136719 19.414062 1.121094 18.917969 1.113281 C 18.550781 1.101562 18.296875 1.117188 18.152344 1.152344 Z M 19.132812 1.957031 C 19.335938 2.011719 19.539062 2.140625 19.660156 2.300781 C 19.753906 2.410156 19.757812 2.957031 19.789062 8.671875 C 19.820312 15.605469 19.78125 15.003906 20.199219 15.300781 C 20.453125 15.484375 20.667969 15.558594 21.035156 15.582031 C 21.285156 15.601562 21.398438 15.585938 21.660156 15.5 C 22.253906 15.3125 22.078125 15.710938 24.289062 9.3125 C 25.625 5.453125 26.308594 3.539062 26.386719 3.46875 C 26.589844 3.277344 26.792969 3.203125 27.152344 3.183594 C 27.394531 3.171875 27.550781 3.1875 27.703125 3.238281 C 27.988281 3.335938 28.199219 3.589844 28.199219 3.84375 C 28.199219 3.953125 27.429688 6.269531 26.34375 9.417969 C 25.324219 12.378906 24.488281 14.871094 24.488281 14.957031 C 24.488281 15.273438 24.816406 15.613281 25.269531 15.761719 C 25.769531 15.925781 26.441406 15.8125 26.714844 15.523438 C 26.792969 15.441406 27.738281 13.921875 28.808594 12.152344 C 29.882812 10.382812 30.8125 8.878906 30.875 8.808594 C 31.0625 8.59375 31.363281 8.488281 31.78125 8.488281 C 32.363281 8.488281 32.675781 8.707031 32.714844 9.132812 L 32.738281 9.386719 L 30.609375 12.867188 C 29.4375 14.78125 28.414062 16.464844 28.335938 16.613281 C 28.21875 16.828125 28.179688 17.019531 28.109375 17.652344 C 27.835938 20.214844 27.097656 22.085938 25.675781 23.84375 C 25.207031 24.421875 24.957031 24.832031 24.765625 25.316406 C 24.660156 25.585938 24.636719 25.789062 24.609375 26.691406 L 24.574219 27.75 L 23.316406 27.761719 L 22.050781 27.769531 L 22.050781 24.445312 L 22.878906 23.875 C 23.332031 23.566406 23.75 23.265625 23.800781 23.207031 C 23.890625 23.117188 23.90625 23.003906 23.90625 22.367188 L 23.90625 21.625 L 24.214844 21.527344 C 24.378906 21.472656 24.644531 21.339844 24.796875 21.230469 C 25.542969 20.691406 25.625 19.917969 24.992188 19.3125 C 24.683594 19.023438 24.289062 18.835938 23.792969 18.746094 C 23.296875 18.660156 22.886719 18.6875 22.421875 18.851562 C 20.882812 19.382812 20.890625 20.96875 22.433594 21.503906 L 22.804688 21.632812 L 22.804688 22.820312 L 21.894531 23.4375 L 20.976562 24.050781 L 20.960938 25.910156 L 20.941406 27.769531 L 17.988281 27.769531 L 17.988281 22.457031 L 17.089844 21.84375 L 16.183594 21.234375 L 16.191406 20.613281 L 16.191406 19.996094 L 16.542969 19.867188 C 16.957031 19.710938 17.285156 19.460938 17.507812 19.140625 C 17.644531 18.945312 17.667969 18.863281 17.667969 18.566406 C 17.667969 18.265625 17.644531 18.1875 17.484375 17.949219 C 17.257812 17.613281 16.902344 17.359375 16.445312 17.199219 C 16.144531 17.09375 16.042969 17.082031 15.550781 17.082031 C 15.058594 17.082031 14.964844 17.09375 14.652344 17.199219 C 14.210938 17.351562 13.820312 17.625 13.601562 17.9375 C 13.449219 18.152344 13.433594 18.226562 13.433594 18.546875 C 13.433594 18.855469 13.457031 18.949219 13.585938 19.136719 C 13.828125 19.503906 14.355469 19.863281 14.757812 19.933594 L 14.914062 19.960938 L 14.914062 20.703125 C 14.914062 21.125 14.941406 21.5 14.976562 21.570312 C 15.011719 21.644531 15.378906 21.921875 15.90625 22.273438 L 16.769531 22.851562 L 16.769531 27.769531 L 15.261719 27.769531 L 15.261719 27.328125 C 15.253906 26.054688 14.917969 25.179688 14.101562 24.324219 C 13.730469 23.941406 13.324219 23.652344 11.925781 22.773438 C 9.945312 21.53125 8.175781 20.191406 7.335938 19.300781 C 6.882812 18.828125 6.761719 18.660156 6.382812 18.035156 C 6.1875 17.710938 5.882812 17.253906 5.710938 17.023438 C 5.066406 16.167969 3.886719 14.941406 3.097656 14.304688 C 2.925781 14.167969 2.785156 14.035156 2.785156 14.015625 C 2.785156 13.960938 3.289062 13.882812 3.644531 13.882812 C 4.269531 13.882812 5.117188 14.128906 5.785156 14.503906 C 6 14.621094 6.613281 15.089844 7.234375 15.601562 C 8.53125 16.675781 8.679688 16.78125 9.179688 16.957031 C 9.671875 17.128906 10.132812 17.199219 10.617188 17.171875 C 11.105469 17.140625 11.332031 17.09375 11.722656 16.929688 C 12.390625 16.648438 12.765625 16.164062 12.8125 15.53125 L 12.835938 15.160156 L 10.820312 9.949219 C 8.667969 4.378906 8.722656 4.542969 8.996094 4.28125 C 9.394531 3.882812 10.402344 3.90625 10.707031 4.3125 C 10.753906 4.378906 11.664062 6.714844 12.738281 9.511719 C 13.808594 12.308594 14.75 14.691406 14.832031 14.808594 C 15.082031 15.171875 15.601562 15.402344 16.191406 15.40625 C 16.636719 15.410156 17 15.300781 17.308594 15.070312 C 17.792969 14.710938 17.757812 15.195312 17.757812 8.511719 C 17.757812 4.136719 17.773438 2.539062 17.824219 2.4375 C 18.015625 2.035156 18.601562 1.816406 19.132812 1.957031 Z M 16.003906 17.984375 C 16.246094 18.105469 16.433594 18.390625 16.394531 18.582031 C 16.304688 18.984375 15.953125 19.167969 15.308594 19.144531 C 15.09375 19.136719 14.703125 18.882812 14.617188 18.699219 C 14.484375 18.417969 14.714844 18.058594 15.109375 17.929688 C 15.347656 17.855469 15.804688 17.882812 16.003906 17.984375 Z M 23.902344 19.652344 C 24.164062 19.792969 24.3125 19.988281 24.3125 20.183594 C 24.3125 20.40625 24.199219 20.566406 23.925781 20.710938 C 23.355469 21.019531 22.515625 20.707031 22.515625 20.195312 C 22.515625 19.933594 22.746094 19.691406 23.09375 19.589844 C 23.304688 19.527344 23.722656 19.558594 23.902344 19.652344 Z M 23.902344 19.652344 "/>
<path style=" stroke:none;fill-rule:nonzero;fill:rgb(0%,0%,0%);fill-opacity:1;" d="M 52.195312 16.292969 C 51.421875 16.496094 50.914062 17.035156 50.960938 17.609375 C 50.984375 17.957031 51.15625 18.214844 51.527344 18.476562 C 51.90625 18.742188 52.207031 18.828125 52.804688 18.828125 C 53.402344 18.832031 53.691406 18.75 54.085938 18.472656 C 54.5 18.183594 54.625 17.964844 54.632812 17.550781 C 54.632812 17.140625 54.515625 16.921875 54.152344 16.644531 C 53.785156 16.367188 53.453125 16.269531 52.863281 16.257812 C 52.589844 16.253906 52.292969 16.269531 52.195312 16.292969 Z M 52.195312 16.292969 "/>
<path style=" stroke:none;fill-rule:nonzero;fill:rgb(0%,0%,0%);fill-opacity:1;" d="M 31.625 16.4375 C 30.8125 16.515625 30.132812 16.589844 30.117188 16.597656 C 30.105469 16.609375 30.25 16.839844 30.445312 17.113281 L 30.800781 17.613281 L 30.230469 23.105469 C 29.917969 26.132812 29.675781 28.617188 29.699219 28.628906 C 29.75 28.660156 31.84375 28.847656 31.875 28.824219 C 31.886719 28.816406 32.246094 27.035156 32.675781 24.867188 C 33.097656 22.699219 33.464844 20.929688 33.488281 20.929688 C 33.503906 20.929688 34.457031 22.382812 35.601562 24.152344 C 36.742188 25.929688 37.804688 27.570312 37.957031 27.796875 L 38.226562 28.210938 L 39.582031 27.804688 C 40.328125 27.582031 40.945312 27.390625 40.949219 27.386719 C 40.960938 27.378906 40.839844 27.191406 40.683594 26.96875 L 40.402344 26.5625 L 41.890625 24.40625 C 42.707031 23.21875 43.671875 21.820312 44.03125 21.300781 C 44.390625 20.773438 44.691406 20.355469 44.710938 20.363281 C 44.722656 20.371094 44.867188 22.277344 45.027344 24.59375 C 45.199219 26.910156 45.34375 28.816406 45.355469 28.824219 C 45.367188 28.832031 46.113281 28.792969 47.011719 28.742188 L 48.65625 28.644531 L 48.644531 28.523438 C 48.632812 28.453125 48.167969 25.96875 47.609375 23 L 46.597656 17.597656 L 46.945312 17.085938 C 47.136719 16.796875 47.257812 16.570312 47.214844 16.570312 C 47.175781 16.570312 46.339844 16.507812 45.359375 16.425781 C 44.089844 16.320312 43.554688 16.285156 43.53125 16.320312 C 43.507812 16.34375 42.539062 18.242188 41.375 20.539062 C 40.207031 22.832031 39.230469 24.710938 39.207031 24.703125 C 39.179688 24.699219 38.363281 23.511719 37.386719 22.070312 C 36.410156 20.621094 35.140625 18.738281 34.5625 17.875 L 33.503906 16.308594 L 33.300781 16.300781 C 33.199219 16.292969 32.4375 16.355469 31.625 16.4375 Z M 31.625 16.4375 "/>
<path style=" stroke:none;fill-rule:nonzero;fill:rgb(0%,0%,0%);fill-opacity:1;" d="M 65.726562 16.316406 C 65.703125 16.328125 65.6875 17.335938 65.6875 18.554688 C 65.6875 19.769531 65.667969 20.765625 65.652344 20.765625 C 65.628906 20.765625 65.449219 20.65625 65.246094 20.523438 C 64.5625 20.074219 63.804688 19.90625 62.464844 19.898438 C 61.445312 19.898438 60.75 20.003906 59.855469 20.300781 C 58.402344 20.785156 57.320312 21.859375 56.941406 23.171875 C 56.820312 23.617188 56.800781 25.050781 56.917969 25.46875 C 57.308594 26.894531 58.277344 27.875 59.8125 28.417969 C 60.59375 28.683594 61.328125 28.792969 62.40625 28.792969 C 63.511719 28.792969 64.382812 28.625 65.171875 28.253906 C 65.476562 28.109375 66.035156 27.714844 66.035156 27.648438 C 66.035156 27.628906 66.070312 27.605469 66.117188 27.59375 C 66.167969 27.578125 66.253906 27.65625 66.378906 27.828125 C 66.585938 28.121094 67.027344 28.515625 67.339844 28.679688 L 67.542969 28.789062 L 68.558594 28.5625 C 69.117188 28.4375 69.574219 28.320312 69.574219 28.296875 C 69.574219 28.28125 69.464844 28.167969 69.324219 28.050781 C 68.769531 27.566406 68.449219 26.988281 68.378906 26.34375 C 68.355469 26.144531 68.367188 25.488281 68.402344 24.890625 C 68.441406 24.292969 68.496094 23.167969 68.53125 22.394531 C 68.566406 21.621094 68.617188 20.503906 68.644531 19.910156 C 68.675781 19.316406 68.722656 18.328125 68.738281 17.710938 L 68.78125 16.589844 L 68.320312 16.539062 C 67.9375 16.5 66.886719 16.398438 65.972656 16.308594 C 65.855469 16.292969 65.746094 16.300781 65.726562 16.316406 Z M 63.609375 21.421875 C 64.386719 21.535156 65.042969 21.863281 65.511719 22.375 L 65.75 22.628906 L 65.734375 24.214844 C 65.710938 26.003906 65.714844 25.996094 65.203125 26.488281 C 64.460938 27.203125 63.457031 27.460938 62.246094 27.242188 C 61.542969 27.117188 61.183594 26.96875 60.695312 26.628906 C 60.21875 26.292969 59.964844 25.976562 59.796875 25.523438 C 59.582031 24.957031 59.582031 23.785156 59.796875 23.207031 C 59.917969 22.875 60.296875 22.375 60.621094 22.113281 C 61.054688 21.765625 61.628906 21.550781 62.4375 21.4375 C 62.917969 21.367188 63.226562 21.363281 63.609375 21.421875 Z M 63.609375 21.421875 "/>
<path style=" stroke:none;fill-rule:nonzero;fill:rgb(0%,0%,0%);fill-opacity:1;" d="M 108.570312 16.300781 C 108.535156 16.324219 108.546875 16.636719 108.800781 23.902344 C 108.921875 27.460938 108.988281 28.808594 109.019531 28.832031 C 109.042969 28.84375 109.613281 28.808594 110.28125 28.75 L 111.5 28.644531 L 111.527344 26.96875 L 111.558594 25.300781 L 111.929688 25.058594 C 112.132812 24.925781 112.316406 24.8125 112.339844 24.804688 C 112.398438 24.789062 112.574219 24.945312 113.566406 25.917969 C 115.972656 28.277344 116.476562 28.769531 116.519531 28.800781 C 116.542969 28.820312 117.121094 28.761719 117.800781 28.667969 C 118.484375 28.578125 119.140625 28.492188 119.261719 28.476562 C 119.390625 28.460938 119.476562 28.429688 119.476562 28.394531 C 119.476562 28.363281 119.148438 28.085938 118.742188 27.777344 C 115.03125 24.960938 113.761719 23.96875 113.757812 23.910156 C 113.75 23.867188 114.046875 23.640625 114.453125 23.371094 C 115.148438 22.90625 117.527344 21.308594 118.507812 20.648438 C 118.789062 20.457031 118.996094 20.289062 118.972656 20.277344 C 118.925781 20.25 115.972656 19.824219 115.839844 19.828125 C 115.804688 19.828125 115.578125 20 115.339844 20.203125 C 114.917969 20.582031 113.03125 22.269531 112.109375 23.09375 C 111.839844 23.339844 111.601562 23.535156 111.574219 23.535156 C 111.550781 23.535156 111.527344 21.980469 111.527344 20.078125 C 111.527344 17.746094 111.511719 16.609375 111.46875 16.59375 C 111.417969 16.566406 110.820312 16.503906 109.496094 16.371094 C 109.289062 16.351562 109.003906 16.320312 108.859375 16.308594 C 108.714844 16.289062 108.585938 16.285156 108.570312 16.300781 Z M 108.570312 16.300781 "/>
<path style=" stroke:none;fill-rule:nonzero;fill:rgb(0%,0%,0%);fill-opacity:1;" d="M 83.328125 16.4375 C 83.007812 16.449219 81.382812 16.519531 80.28125 16.570312 C 79.832031 16.59375 79.007812 16.628906 78.453125 16.652344 C 77.894531 16.675781 77.058594 16.714844 76.597656 16.734375 C 75.773438 16.773438 72.636719 16.914062 71.1875 16.976562 C 70.78125 16.992188 70.425781 17.015625 70.410156 17.03125 C 70.386719 17.046875 70.507812 17.359375 70.683594 17.71875 L 71 18.382812 L 73.375 18.402344 L 75.753906 18.425781 L 75.773438 23.632812 L 75.785156 28.839844 L 76.0625 28.816406 C 76.210938 28.804688 76.84375 28.757812 77.472656 28.722656 L 78.613281 28.648438 L 78.648438 28.34375 C 78.667969 28.171875 78.695312 27.660156 78.714844 27.199219 C 78.730469 26.738281 78.773438 25.785156 78.800781 25.082031 C 78.828125 24.378906 78.882812 23.175781 78.917969 22.414062 C 78.953125 21.652344 79.003906 20.441406 79.042969 19.714844 L 79.109375 18.402344 L 81.332031 18.402344 C 82.550781 18.402344 83.589844 18.390625 83.640625 18.378906 C 83.722656 18.359375 83.734375 18.238281 83.734375 17.425781 C 83.734375 16.730469 83.714844 16.488281 83.664062 16.464844 C 83.621094 16.445312 83.472656 16.433594 83.328125 16.4375 Z M 83.328125 16.4375 "/>
<path style=" stroke:none;fill-rule:nonzero;fill:rgb(0%,0%,0%);fill-opacity:1;" d="M 51.300781 19.820312 C 51.203125 19.84375 51.207031 28.828125 51.3125 28.832031 C 51.410156 28.839844 51.308594 28.84375 52.660156 28.746094 C 53.332031 28.695312 53.894531 28.644531 53.914062 28.628906 C 53.9375 28.617188 53.984375 27.988281 54.015625 27.238281 C 54.058594 26.488281 54.109375 25.398438 54.140625 24.816406 C 54.175781 24.234375 54.226562 23.253906 54.253906 22.636719 C 54.289062 22.023438 54.332031 21.195312 54.355469 20.800781 L 54.390625 20.085938 L 54.25 20.0625 C 54.167969 20.042969 53.871094 20.015625 53.589844 19.992188 C 53.019531 19.945312 52.28125 19.886719 51.726562 19.835938 C 51.527344 19.816406 51.34375 19.8125 51.300781 19.820312 Z M 51.300781 19.820312 "/>
<path style=" stroke:none;fill-rule:nonzero;fill:rgb(0%,0%,0%);fill-opacity:1;" d="M 85.683594 20.308594 C 85.699219 20.570312 85.800781 22.597656 85.910156 24.808594 C 86.011719 27.023438 86.117188 28.84375 86.136719 28.855469 C 86.164062 28.878906 88.257812 28.730469 88.625 28.679688 L 88.78125 28.65625 L 88.78125 22.941406 L 88.933594 22.726562 C 89.5 21.925781 90.753906 21.578125 92.464844 21.746094 C 92.710938 21.769531 92.925781 21.78125 92.941406 21.769531 C 92.976562 21.742188 92.496094 19.980469 92.441406 19.9375 C 92.390625 19.902344 91.078125 19.976562 90.707031 20.035156 C 90.152344 20.128906 89.699219 20.316406 89.234375 20.644531 L 88.789062 20.957031 L 88.769531 20.523438 L 88.753906 20.09375 L 87.503906 19.988281 C 86.820312 19.929688 86.125 19.871094 85.957031 19.859375 L 85.652344 19.832031 Z M 85.683594 20.308594 "/>
<path style=" stroke:none;fill-rule:nonzero;fill:rgb(0%,0%,0%);fill-opacity:1;" d="M 99.417969 19.992188 C 96.800781 20.253906 94.890625 21.578125 94.402344 23.492188 C 94.289062 23.9375 94.304688 24.976562 94.433594 25.421875 C 94.9375 27.226562 96.679688 28.480469 99.109375 28.789062 C 99.824219 28.882812 101.554688 28.859375 102.300781 28.75 C 103.597656 28.558594 104.519531 28.164062 105.390625 27.429688 L 105.667969 27.191406 L 105.277344 26.667969 L 104.882812 26.148438 L 104.535156 26.378906 C 104.117188 26.660156 103.949219 26.742188 103.480469 26.910156 C 102.667969 27.199219 101.675781 27.363281 100.707031 27.363281 C 99.707031 27.363281 98.882812 27.125 98.210938 26.652344 C 97.742188 26.316406 97.480469 26.023438 97.277344 25.609375 C 96.988281 25.007812 96.953125 24.058594 97.195312 23.386719 C 97.628906 22.171875 98.941406 21.445312 100.589844 21.511719 C 101.488281 21.542969 102.035156 21.738281 102.421875 22.160156 C 102.683594 22.441406 102.875 22.84375 102.898438 23.148438 L 102.910156 23.347656 L 100.253906 23.496094 C 98.792969 23.582031 97.578125 23.660156 97.5625 23.667969 C 97.542969 23.679688 97.628906 23.945312 97.757812 24.253906 L 97.980469 24.816406 L 101.972656 24.828125 L 105.957031 24.835938 L 105.957031 24.402344 C 105.957031 23.878906 105.835938 23.28125 105.636719 22.792969 C 105.039062 21.328125 103.613281 20.347656 101.640625 20.050781 C 101.148438 19.972656 99.917969 19.941406 99.417969 19.992188 Z M 99.417969 19.992188 "/>
</g>
</svg>
